<svg width="20" height="20" viewBox="0 0 20 20" fill="none" xmlns="http://www.w3.org/2000/svg">
<g clip-path="url(#clip0_311_6579)">
<path d="M4.56809 1.66037C4.4943 1.56544 4.40115 1.48731 4.29484 1.43115C4.18853 1.37499 4.07149 1.34209 3.95149 1.33465C3.83149 1.3272 3.71127 1.34537 3.59883 1.38795C3.48639 1.43053 3.3843 1.49655 3.29934 1.58162L2.00684 2.87537C1.40309 3.48037 1.18059 4.33662 1.44434 5.08787C2.53901 8.19735 4.31971 11.0205 6.65434 13.3479C8.98175 15.6825 11.8049 17.4632 14.9143 18.5579C15.6656 18.8216 16.5218 18.5991 17.1268 17.9954L18.4193 16.7029C18.5044 16.6179 18.5704 16.5158 18.613 16.4034C18.6556 16.2909 18.6738 16.1707 18.6663 16.0507C18.6589 15.9307 18.626 15.8137 18.5698 15.7074C18.5136 15.6011 18.4355 15.5079 18.3406 15.4341L15.4568 13.1916C15.3554 13.113 15.2375 13.0584 15.1119 13.032C14.9863 13.0055 14.8563 13.008 14.7318 13.0391L11.9943 13.7229C11.6289 13.8142 11.2461 13.8093 10.8831 13.7088C10.5202 13.6083 10.1894 13.4154 9.92309 13.1491L6.85309 10.0779C6.58655 9.81167 6.3935 9.48097 6.29273 9.11799C6.19196 8.75501 6.18692 8.37213 6.27809 8.00662L6.96309 5.26912C6.99422 5.14461 6.99667 5.01466 6.97026 4.88907C6.94384 4.76348 6.88924 4.64553 6.81059 4.54412L4.56809 1.66037ZM2.35559 0.639119C2.57433 0.420306 2.83712 0.250532 3.12651 0.14107C3.4159 0.0316089 3.72527 -0.0150353 4.03407 0.00423504C4.34286 0.0235054 4.64403 0.108249 4.91757 0.25284C5.1911 0.39743 5.43075 0.598558 5.62059 0.842869L7.86309 3.72537C8.27434 4.25412 8.41934 4.94287 8.25684 5.59287L7.57309 8.33037C7.53774 8.47216 7.53965 8.62068 7.57863 8.76151C7.61762 8.90234 7.69236 9.0307 7.79559 9.13412L10.8668 12.2054C10.9704 12.3088 11.099 12.3837 11.24 12.4227C11.3811 12.4617 11.5299 12.4634 11.6718 12.4279L14.4081 11.7441C14.7289 11.6639 15.0637 11.6577 15.3872 11.7259C15.7107 11.7941 16.0145 11.935 16.2756 12.1379L19.1581 14.3804C20.1943 15.1866 20.2893 16.7179 19.3618 17.6441L18.0693 18.9366C17.1443 19.8616 15.7618 20.2679 14.4731 19.8141C11.1746 18.6535 8.17968 16.7652 5.71059 14.2891C3.2347 11.8204 1.34635 8.82594 0.185589 5.52787C-0.266911 4.24037 0.139339 2.85662 1.06434 1.93162L2.35684 0.639119H2.35559ZM15.8081 0.807869C15.8661 0.749665 15.9351 0.703486 16.011 0.671978C16.087 0.64047 16.1684 0.624252 16.2506 0.624251C16.3328 0.624252 16.4142 0.64047 16.4901 0.671978C16.5661 0.703486 16.635 0.749665 16.6931 0.807869L19.8181 3.93287C19.8763 3.99093 19.9225 4.0599 19.954 4.13583C19.9855 4.21176 20.0017 4.29316 20.0017 4.37537C20.0017 4.45758 19.9855 4.53898 19.954 4.61491C19.9225 4.69084 19.8763 4.75981 19.8181 4.81787L16.6931 7.94287C16.5757 8.06023 16.4166 8.12616 16.2506 8.12616C16.0846 8.12616 15.9254 8.06023 15.8081 7.94287C15.6907 7.82551 15.6248 7.66634 15.6248 7.50037C15.6248 7.3344 15.6907 7.17523 15.8081 7.05787L17.8668 5.00037H11.8756C11.7098 5.00037 11.5509 4.93452 11.4336 4.81731C11.3164 4.7001 11.2506 4.54113 11.2506 4.37537C11.2506 4.20961 11.3164 4.05064 11.4336 3.93343C11.5509 3.81622 11.7098 3.75037 11.8756 3.75037H17.8668L15.8081 1.69287C15.7499 1.63481 15.7037 1.56584 15.6722 1.48991C15.6407 1.41398 15.6245 1.33258 15.6245 1.25037C15.6245 1.16816 15.6407 1.08676 15.6722 1.01083C15.7037 0.934895 15.7499 0.865926 15.8081 0.807869Z" fill="#FAC81A"/>
</g>
<defs>
<clipPath id="clip0_311_6579">
<rect width="20" height="20" fill="white"/>
</clipPath>
</defs>
</svg>
