<svg width="20" height="20" viewBox="0 0 20 20" fill="none" xmlns="http://www.w3.org/2000/svg">
<path d="M8.33268 14.9993C4.64037 14.9993 1.66602 12.025 1.66602 8.33268C1.66602 4.64037 4.64037 1.66602 8.33268 1.66602C12.025 1.66602 14.9993 4.64037 14.9993 8.33268C14.9993 12.025 12.025 14.9993 8.33268 14.9993ZM8.33268 2.69166C5.20448 2.69166 2.69166 5.20448 2.69166 8.33268C2.69166 11.4609 5.20448 13.9737 8.33268 13.9737C11.4609 13.9737 13.9737 11.4609 13.9737 8.33268C13.9737 5.20448 11.4609 2.69166 8.33268 2.69166Z" fill="#FAC81A"/>
<path d="M13.2936 12.5L18.3333 17.5398L17.5398 18.3333L12.5 13.2936L13.2936 12.5Z" fill="#FAC81A"/>
</svg>
