<svg width="100" height="100" viewBox="0 0 100 100" fill="none" xmlns="http://www.w3.org/2000/svg">
<g clip-path="url(#clip0_311_6334)">
<path d="M94.9995 48.3381C95.0004 51.3423 94.7099 54.3393 94.1329 57.2874C87.5637 47.0434 74.8973 42.5403 63.3359 46.3387V43.3385L66.669 40.0055V30.0065L58.3364 21.674H50.0039L43.3379 15.008V1.94282C44.9979 1.76135 46.6676 1.67185 48.3374 1.67591C74.1064 1.6808 94.9947 22.5691 94.9995 48.3381Z" fill="#BDDBFF"/>
<path d="M87.7182 73.3359H78.3359C78.3351 76.2206 80.192 78.7773 82.9359 79.6691C83.6024 79.8897 84.2997 80.0028 85.002 80.002C88.6832 80.002 91.668 77.0172 91.668 73.3359H87.7182Z" fill="#BDDBFF"/>
<path d="M58.3369 36.6733V41.6729L55.0039 45.0059H51.6709V38.3399L48.3379 35.0068V31.6738H58.3369V36.6733Z" fill="#BDDBFF"/>
<path d="M56.6694 73.3359H51.6699C51.6699 77.0172 54.6547 80.002 58.3359 80.002C62.0172 80.002 65.002 77.0172 65.002 73.3359H56.6694Z" fill="#BDDBFF"/>
<path d="M50.0039 87.2334C43.4876 78.1335 43.3273 65.9374 49.6044 56.6699H36.6719L30.0059 63.3359V68.3355L33.3389 71.6685H40.0049V78.3345L43.3379 81.6675V94.7326C44.9979 94.9149 46.6677 95.0036 48.3374 94.9995C48.9038 94.9995 49.4538 94.9833 50.0039 94.9499C52.45 94.8815 54.8863 94.609 57.2867 94.1329C54.4509 92.3069 51.9805 89.9667 50.0039 87.2334Z" fill="#BDDBFF"/>
<path d="M33.3392 15.0073V21.6733L26.6732 28.3394V35.0054L20.0072 41.6714H15.0077V46.6709L23.3402 55.0034V60.003L18.3407 65.0025V70.002L11.4411 76.9016C3.60659 66.7829 0.271951 53.8903 2.21919 41.2418C4.16643 28.5941 11.2247 17.3012 21.7404 10.0078H28.3397L33.3392 15.0073Z" fill="#BDDBFF"/>
<path d="M50.0049 39.0284V45.0044C50.0049 45.9247 50.7511 46.6709 51.6714 46.6709H55.0044C55.4463 46.6709 55.8702 46.4951 56.1827 46.1827L59.5157 42.8497C59.8282 42.5372 60.0039 42.1132 60.0039 41.6714V31.6724C60.0039 30.752 59.2577 30.0059 58.3374 30.0059H48.3384C47.4181 30.0059 46.6719 30.752 46.6719 31.6724V35.0054C46.6719 35.4472 46.8476 35.8712 47.1601 36.1836L50.0049 39.0284ZM50.0049 33.3389H56.6709V40.9814L54.3144 43.3379H53.3379V38.3384C53.3379 37.8965 53.1621 37.4726 52.8497 37.1601L50.0049 34.3153V33.3389Z" fill="#6685A3"/>
<path d="M95.8704 57.0177C98.4654 42.9126 94.6547 28.3844 85.4702 17.3699C76.2865 6.35449 62.6803 -0.00638061 48.3384 0.00989385C46.6092 0.00582524 44.8809 0.0985898 43.1623 0.28656C18.6139 2.92628 0.00244142 23.6437 2.40173e-07 48.3337C-0.00244094 73.0228 18.605 93.7443 43.1525 96.3889C44.8744 96.5785 46.606 96.6713 48.3384 96.6672C48.9381 96.6672 49.5232 96.6509 50.0497 96.6176C52.3842 96.5443 54.709 96.2921 57.0046 95.8624C68.1428 102.659 82.4855 100.949 91.7139 91.7254C100.943 82.5019 102.661 68.16 95.8704 57.0177ZM93.334 48.3385C93.3308 49.9481 93.2405 51.5568 93.0655 53.1566C86.1659 45.0918 75.3044 41.6139 65.0034 44.1723V44.0372L67.8482 41.1924C68.1631 40.8783 68.3389 40.4511 68.3365 40.006V30.007C68.3365 29.5651 68.1607 29.1412 67.8482 28.8287L59.5157 20.4962C59.2032 20.1837 58.7793 20.008 58.3374 20.008H50.6949L45.0054 14.3184V3.48612C46.0836 3.39824 47.1886 3.3429 48.3384 3.3429C73.1773 3.37057 93.3064 23.4996 93.334 48.3385ZM3.34277 48.3385C3.35091 33.7713 10.4116 20.1089 22.2895 11.6754H27.6503L31.6734 15.6985V20.9844L25.4956 27.1622C25.1831 27.4747 25.0073 27.8986 25.0073 28.3405V34.3165L19.3178 40.006H15.0083C14.088 40.006 13.3418 40.7522 13.3418 41.6725V46.672C13.3418 47.1139 13.5176 47.5378 13.83 47.8503L21.6743 55.6946V59.314L17.163 63.8253C16.8506 64.1378 16.6748 64.5617 16.6748 65.0036V69.3131L11.6574 74.3362C6.23393 66.7539 3.32569 57.6606 3.34277 48.3385ZM13.6868 77.0158L19.5196 71.183C19.8329 70.8705 20.0078 70.4458 20.0078 70.0031V65.6936L24.5191 61.1823C24.8316 60.8699 25.0073 60.4459 25.0073 60.0041V55.0046C25.0073 54.5627 24.8316 54.1388 24.5191 53.8263L16.6748 45.982V43.339H20.0078C20.4497 43.339 20.8736 43.1633 21.1861 42.8508L27.8521 36.1848C28.1646 35.8723 28.3403 35.4484 28.3403 35.0065V29.0305L34.5181 22.8527C34.8306 22.5403 35.0064 22.1163 35.0064 21.6745V15.0084C35.0064 14.5666 34.8306 14.1426 34.5181 13.8302L29.5186 8.83065C29.2061 8.51818 28.7822 8.34242 28.3403 8.34242H27.7488C32.1136 6.09573 36.8169 4.58058 41.6724 3.85636V15.0084C41.6724 15.4503 41.8481 15.8742 42.1606 16.1867L48.8266 22.8527C49.1391 23.1652 49.5631 23.341 50.0049 23.341H57.6474L65.0034 30.697V39.316L62.1587 42.1608C61.8462 42.4732 61.6704 42.8972 61.6704 43.339V45.1959C56.5236 47.1505 52.0563 50.5584 48.8104 55.0046H36.6729C36.231 55.0046 35.8071 55.1803 35.4946 55.4928L28.8286 62.1588C28.5161 62.4713 28.3403 62.8952 28.3403 63.3371V68.3366C28.3403 68.7785 28.5161 69.2024 28.8286 69.5149L32.1616 72.8479C32.4741 73.1604 32.898 73.3361 33.3399 73.3361H38.3394V78.3356C38.3394 78.7775 38.5151 79.2014 38.8276 79.5139L41.6724 82.3587V92.8345C30.7213 91.168 20.7621 85.5395 13.6868 77.0158ZM49.9032 93.2878C48.2701 93.3667 46.6337 93.3342 45.0054 93.1893V81.6686C45.0054 81.2268 44.8296 80.8028 44.5172 80.4904L41.6724 77.6456V71.6696C41.6724 70.7493 40.9262 70.0031 40.0059 70.0031H34.0299L31.6734 67.6466V64.0271L37.3629 58.3376H46.6849C40.438 69.9982 43.1257 84.432 53.1516 93.0624C52.0734 93.1674 50.9895 93.2577 49.9032 93.2878ZM71.6695 96.6672C57.8638 96.6672 46.6719 85.4752 46.6719 71.6696C46.6719 57.864 57.8638 46.672 71.6695 46.672C85.4751 46.672 96.667 57.864 96.667 71.6696C96.6516 85.4687 85.4686 96.6517 71.6695 96.6672Z" fill="#6685A3"/>
<path d="M93.1663 72.5914L87.6973 61.6704H90.0001V58.3374H76.3613C75.8576 56.9264 74.7469 55.8157 73.335 55.3112V53.3379H70.002V55.3112C68.591 55.8157 67.4795 56.9264 66.9758 58.3374H53.337V61.6704H55.6398L50.1708 72.5914C50.0585 72.8233 50.0015 73.078 50.004 73.3359C50.004 77.9384 53.7349 81.6685 58.3365 81.6685C62.9381 81.6685 66.669 77.9384 66.669 73.3359C66.6723 73.078 66.6145 72.8233 66.5022 72.5914L61.0332 61.6704H66.9758C67.4795 63.0822 68.591 64.193 70.002 64.6967V85.0015H61.6695V88.3345H81.6676V85.0015H73.335V64.6967C74.7469 64.193 75.8576 63.0822 76.3613 61.6704H82.3039L76.843 72.5914C76.7275 72.8225 76.6681 73.0772 76.6681 73.3359C76.6681 77.9384 80.399 81.6685 85.0006 81.6685C89.6022 81.6685 93.3331 77.9384 93.3331 73.3359C93.3364 73.078 93.2786 72.8233 93.1663 72.5914ZM58.3365 63.7299L62.3058 71.6694H54.3672L58.3365 63.7299ZM58.3365 78.3355C56.2257 78.3265 54.3484 76.992 53.6454 75.0025H63.0276C62.3246 76.992 60.4473 78.3265 58.3365 78.3355ZM71.6685 61.6704C70.7482 61.6704 70.002 60.9242 70.002 60.0039C70.002 59.0836 70.7482 58.3374 71.6685 58.3374C72.5889 58.3374 73.335 59.0836 73.335 60.0039C73.335 60.9242 72.5889 61.6704 71.6685 61.6704ZM85.0006 63.7299L88.9699 71.6694H81.0312L85.0006 63.7299ZM85.0006 78.3355C82.8898 78.3265 81.0125 76.992 80.3095 75.0025H89.6917C88.9886 76.992 87.1114 78.3265 85.0006 78.3355Z" fill="#6685A3"/>
<path d="M55.0039 85.002H58.3369V88.335H55.0039V85.002Z" fill="#6685A3"/>
<path d="M85.002 85.002H88.335V88.335H85.002V85.002Z" fill="#6685A3"/>
</g>
<defs>
<clipPath id="clip0_311_6334">
<rect width="100" height="100" rx="5" fill="white"/>
</clipPath>
</defs>
</svg>
