<svg width="74" height="98" viewBox="0 0 74 98" fill="none" xmlns="http://www.w3.org/2000/svg">
<path d="M68.6673 0H5.33398C2.57275 0 0.333984 2.19399 0.333984 4.9V93.1C0.333984 95.806 2.57275 98 5.33398 98H68.6673C71.4285 98 73.6673 95.806 73.6673 93.1V4.9C73.6673 2.19399 71.4285 0 68.6673 0ZM53.6673 3.26667H60.334V13.0667L58.3337 10.4532C58.0057 10.0624 57.5166 9.83669 57.0006 9.83669C56.4847 9.83669 55.9956 10.0624 55.6676 10.4532L53.6673 13.0667V3.26667ZM70.334 93.1C70.334 94.002 69.5877 94.7333 68.6673 94.7333H5.33398C4.41357 94.7333 3.66732 94.002 3.66732 93.1V4.9C3.66732 3.998 4.41357 3.26667 5.33398 3.26667H50.334V17.9667C50.334 18.6701 50.793 19.2938 51.4733 19.5163C52.1545 19.7388 52.9032 19.5091 53.3337 18.9468L57.0006 14.1561L60.6676 18.9468C60.9818 19.3576 61.4757 19.6 62.0006 19.6C62.1797 19.5992 62.3571 19.5713 62.5272 19.5171C63.2083 19.2945 63.6673 18.6701 63.6673 17.9667V3.26667H68.6673C69.5877 3.26667 70.334 3.998 70.334 4.9V93.1Z" fill="#6685A3"/>
<path d="M27 22.8672H47V26.1339H27V22.8672Z" fill="#6685A3"/>
<path d="M27 16.334H47V19.6006H27V16.334Z" fill="#6685A3"/>
<path d="M10.334 73.5H20.334V76.7667H10.334V73.5Z" fill="#6685A3"/>
<path d="M23.668 73.5H47.0013V76.7667H23.668V73.5Z" fill="#6685A3"/>
<path d="M50.334 73.5H53.6673V76.7667H50.334V73.5Z" fill="#6685A3"/>
<path d="M57 73.5H63.6667V76.7667H57V73.5Z" fill="#6685A3"/>
<path d="M10.334 80.0332H43.6673V83.2999H10.334V80.0332Z" fill="#6685A3"/>
<path d="M47 80.0332H63.6667V83.2999H47V80.0332Z" fill="#6685A3"/>
<path d="M23.6673 60.4327C28.2677 60.4271 31.995 56.7744 32.0006 52.266C32.0006 52.0124 31.9412 51.7628 31.8257 51.5363L26.3643 40.8327H32.3075C32.8112 42.2164 33.922 43.305 35.334 43.7987V63.6993H27.0007V66.966H47.0006V63.6993H38.6673V43.7987C40.0793 43.305 41.1901 42.2164 41.6938 40.8327H47.637L42.1675 51.5363C42.0552 51.7636 41.9982 52.0132 42.0006 52.266C42.0006 56.776 45.7319 60.4327 50.334 60.4327C54.936 60.4327 58.6673 56.776 58.6673 52.266C58.6698 52.0132 58.6128 51.7636 58.5005 51.5363L53.0309 40.8327H55.334V37.566H41.6938C41.1901 36.1823 40.0793 35.0937 38.6673 34.6V32.666H35.334V34.6C33.922 35.0937 32.8112 36.1823 32.3075 37.566H18.6673V40.8327H20.9704L15.509 51.5363C15.3934 51.7628 15.334 52.0124 15.334 52.266C15.3397 56.7744 19.0669 60.4271 23.6673 60.4327ZM50.334 42.8512L54.3037 50.6327H46.3643L50.334 42.8512ZM50.334 57.166C48.223 57.1564 46.3455 55.8493 45.6424 53.8993H55.0256C54.3224 55.8493 52.445 57.1564 50.334 57.166ZM37.0006 37.566C37.9211 37.566 38.6673 38.2973 38.6673 39.1993C38.6673 40.1014 37.9211 40.8327 37.0006 40.8327C36.0802 40.8327 35.334 40.1014 35.334 39.1993C35.334 38.2973 36.0802 37.566 37.0006 37.566ZM23.6673 57.166C21.5563 57.1564 19.6789 55.8493 18.9757 53.8993H28.3589C27.6558 55.8493 25.7783 57.1564 23.6673 57.166ZM19.6976 50.6327L23.6673 42.8512L27.637 50.6327H19.6976Z" fill="#6685A3"/>
<path d="M20.334 63.6992H23.6673V66.9659H20.334V63.6992Z" fill="#6685A3"/>
<path d="M50.334 63.6992H53.6673V66.9659H50.334V63.6992Z" fill="#6685A3"/>
</svg>
