<svg width="100" height="100" viewBox="0 0 100 100" fill="none" xmlns="http://www.w3.org/2000/svg">
<path d="M42.4021 34.9972L35.7958 48.2275C35.7958 51.8807 38.7538 54.8426 42.4021 54.8426C46.0504 54.8426 49.0084 51.8807 49.0084 48.2275L42.4021 34.9972ZM68.8274 34.9972L62.2211 48.2275C62.2211 51.8807 65.1791 54.8426 68.8274 54.8426C72.4757 54.8426 75.4338 51.8807 75.4338 48.2275L68.8274 34.9972ZM58.9179 34.9972C58.9179 33.1706 57.4389 31.6896 55.6148 31.6896C53.7906 31.6896 52.3116 33.1706 52.3116 34.9972C52.3116 36.8238 53.7906 38.3048 55.6148 38.3048C57.4373 38.2991 58.9123 36.8214 58.9179 34.9972ZM82.0401 11.8442V74.655L81.9909 74.6881H49.0084L42.6666 72.5716C40.3078 71.781 37.8369 71.3789 35.3498 71.3805H33.9458C32.3475 71.3789 30.7531 71.5452 29.1895 71.8763V6.88281C29.1895 9.62271 31.408 11.8442 34.1442 11.8442H82.0401Z" fill="#BDDBFF"/>
<path d="M68.827 34.9961L75.4334 48.2264H62.2207L68.827 34.9961Z" fill="#BDDBFF"/>
<path d="M58.9169 34.997C58.9169 36.8236 57.4379 38.3046 55.6137 38.3046C53.7896 38.3046 52.3105 36.8236 52.3105 34.997C52.3105 33.1704 53.7896 31.6895 55.6137 31.6895C57.4379 31.6895 58.9169 33.1704 58.9169 34.997Z" fill="#BDDBFF"/>
<path d="M42.4013 34.9961L49.0076 48.2264H35.7949L42.4013 34.9961Z" fill="#BDDBFF"/>
<path d="M15.9763 96.1867V97.8405H2.76367V74.6875H15.9763V96.1867Z" fill="#BDDBFF"/>
<path d="M98.114 70.8529C96.2679 67.7126 92.2327 66.6352 89.0591 68.4352L83.8403 71.4343V1.65159C83.8403 0.739504 83.0984 0 82.1835 0H34.1361C30.4763 0 27.5089 2.95802 27.5089 6.60634V70.2158C25.2728 70.8093 23.1315 71.7125 21.147 72.898L18.7662 74.3214H17.5681C17.5681 73.4093 16.8262 72.6698 15.9112 72.6698H2.65681C1.74184 72.6698 1 73.4093 1 74.3214V97.4436C1 98.3556 1.74184 99.0951 2.65681 99.0951H15.9112C16.8262 99.0951 17.5681 98.3556 17.5681 97.4436H30.0459C30.4989 97.4436 30.9511 97.4702 31.4009 97.5226L51.1515 99.8354C52.1021 99.9459 53.0591 100.002 54.0162 100C58.3904 100 62.6877 98.8564 66.4802 96.6839L95.6863 79.8809C97.7476 78.7092 99.0145 76.5213 98.9999 74.156C98.9991 72.9972 98.6933 71.8577 98.114 70.8529ZM14.2544 95.792H4.31361V75.9729H14.2544V95.792ZM74.9503 76.5512C74.8573 76.3495 74.7448 76.1633 74.6348 75.9729H75.9527L74.9503 76.5512ZM34.1361 3.30317H80.5267V9.90951H34.1361C32.3062 9.90951 30.8225 8.43051 30.8225 6.60634C30.8225 4.78218 32.3062 3.30317 34.1361 3.30317ZM30.8225 12.2942C31.8256 12.8885 32.9696 13.2062 34.1361 13.2127H80.5267V72.6698H49.3159L43.2008 70.6384C40.6671 69.7956 38.0136 69.3658 35.3423 69.3666H33.9339C32.8935 69.369 31.8548 69.4368 30.8225 69.5682V12.2942ZM94.0295 77.0197L64.8234 93.8299C60.8003 96.1331 56.1414 97.0895 51.5326 96.5581L31.7836 94.246C31.2068 94.1775 30.6267 94.142 30.0459 94.1404H17.5681V77.6245H19.2249C19.5258 77.6245 19.8203 77.5431 20.0783 77.3882L22.8515 75.7367C26.1983 73.7318 30.0297 72.6722 33.9339 72.6698H35.3423C37.6576 72.6698 39.9576 73.0415 42.1532 73.7714L48.5239 75.8891C48.693 75.9447 48.8694 75.9729 49.0474 75.9729H68.929C70.759 75.9729 72.2426 77.452 72.2426 79.2761C72.2426 81.1003 70.759 82.5793 68.929 82.5793H44.0769V85.8825H68.929C72.275 85.872 75.0854 83.3728 75.477 80.0608L82.8096 75.8423C82.8379 75.8294 82.8614 75.8092 82.8881 75.7963L90.7078 71.2972C91.7327 70.7077 92.9956 70.7069 94.0206 71.2972C95.0456 71.8867 95.6774 72.9762 95.6782 74.156C95.6879 75.3375 95.0577 76.4318 94.0295 77.0197Z" fill="#6685A3"/>
<path d="M47.3555 20.1133H63.8713V23.4209H47.3555V20.1133Z" fill="#6685A3"/>
<path d="M42.4005 56.4952C46.9593 56.4896 50.6528 52.7912 50.6584 48.2263C50.6584 47.9695 50.5995 47.7168 50.485 47.4874L45.073 36.6498H50.9624C51.4624 38.0508 52.5632 39.1531 53.9616 39.6529V59.8028H45.7037V63.1104H65.5226V59.8028H57.2647V39.6529C58.6639 39.1531 59.7647 38.0508 60.2639 36.6498H66.1533L60.7332 47.4874C60.6219 47.7176 60.5655 47.9703 60.5679 48.2263C60.5679 52.7928 64.2654 56.4952 68.8258 56.4952C73.387 56.4952 77.0837 52.7928 77.0837 48.2263C77.087 47.9703 77.0305 47.7176 76.9184 47.4874L71.4983 36.6498H73.7806V33.3422H60.2639C59.7647 31.9412 58.6639 30.8389 57.2647 30.3391V28.3809H53.9616V30.3391C52.5632 30.8389 51.4624 31.9412 50.9624 33.3422H37.4457V36.6498H39.728L34.316 47.4874C34.2014 47.7168 34.1426 47.9695 34.1426 48.2263C34.1482 52.7912 37.8425 56.4896 42.4005 56.4952ZM68.8258 38.6936L72.7596 46.5725H64.892L68.8258 38.6936ZM68.8258 53.1877C66.7347 53.178 64.8743 51.8545 64.1767 49.8801H73.4749C72.7782 51.8545 70.9177 53.178 68.8258 53.1877ZM55.6132 33.3422C56.5252 33.3422 57.2647 34.0827 57.2647 34.996C57.2647 35.9093 56.5252 36.6498 55.6132 36.6498C54.7011 36.6498 53.9616 35.9093 53.9616 34.996C53.9616 34.0827 54.7011 33.3422 55.6132 33.3422ZM42.4005 53.1877C40.3094 53.178 38.449 51.8545 37.7514 49.8801H47.0496C46.3528 51.8545 44.4924 53.178 42.4005 53.1877ZM38.4667 46.5725L42.4005 38.6936L46.3343 46.5725H38.4667Z" fill="#6685A3"/>
<path d="M39.0977 59.8047H42.4008V63.1123H39.0977V59.8047Z" fill="#6685A3"/>
<path d="M68.8262 59.8047H72.1293V63.1123H68.8262V59.8047Z" fill="#6685A3"/>
</svg>
