<svg width="100" height="100" viewBox="0 0 100 100" fill="none" xmlns="http://www.w3.org/2000/svg">
<path d="M99.3327 26.0013V46.0013L95.9994 47.9015L87.666 52.668H65.9994V51.0013C65.9994 42.7168 59.2839 36.0013 50.9994 36.0013C42.7148 36.0013 35.9994 42.7168 35.9994 51.0013V52.668H14.3327L5.99935 47.9015L2.66602 46.0013V26.0013C2.67171 24.1629 4.16097 22.6737 5.99935 22.668H95.9994C97.8377 22.6737 99.327 24.1629 99.3327 26.0013Z" fill="#BDDBFF"/>
<path d="M71.3333 6V11H64.6667V7.66667H34.6667V11H28V6C28 3.23877 30.2388 1 33 1H66.3333C69.0946 1 71.3333 3.23877 71.3333 6Z" fill="#BDDBFF"/>
<path d="M50 33C41.7155 33 35 39.7155 35 48V53H42.8166C46.0547 53.0041 49.1805 51.8184 51.5999 49.6667C51.8229 49.4917 52.0345 49.3021 52.2331 49.1003L55 46.3333L55.5664 47.467C55.9627 48.2653 56.4673 49.0059 57.0671 49.6667C58.6898 51.4896 60.9261 52.6517 63.3496 52.9333C63.737 52.9813 64.1268 53.0032 64.5166 53H65V48C65 39.7155 58.2845 33 50 33Z" fill="#BDDBFF"/>
<path d="M65.9662 75.9834L61.666 74.8164V79.6667L49.9994 91.3333L38.3327 79.6667V74.8164L34.0326 75.9834C29.6868 77.1772 26.6725 81.1258 26.666 85.6335V96.3333H73.3327V85.6335C73.3262 81.1258 70.3119 77.1772 65.9662 75.9834Z" fill="#BDDBFF"/>
<path d="M50.0007 61.3333C48.1598 61.3333 46.6673 59.8408 46.6673 58H43.334C43.334 61.6816 46.319 64.6667 50.0007 64.6667C53.6823 64.6667 56.6673 61.6816 56.6673 58H53.334C53.334 59.8408 51.8415 61.3333 50.0007 61.3333Z" fill="#6685A3"/>
<path d="M95 19.8H73.3333V6.6C73.3333 2.95518 70.3483 0 66.6667 0H33.3333C29.6517 0 26.6667 2.95518 26.6667 6.6V19.8H5C2.23877 19.8 1.56125e-06 22.0164 1.56125e-06 24.75V44.55C-0.000812241 45.1406 0.316571 45.6868 0.833335 45.9825L3.33333 47.3932V87.45C3.33333 90.1836 5.5721 92.4 8.33333 92.4H25V97.35C25 98.2612 25.7463 99 26.6667 99H73.3333C74.2537 99 75 98.2612 75 97.35V92.4H91.6667C94.4279 92.4 96.6667 90.1836 96.6667 87.45V47.3932L99.1667 45.9825C99.6834 45.6868 100.001 45.1406 100 44.55V24.75C100 22.0164 97.7612 19.8 95 19.8ZM66.6667 19.8V13.2H70V19.8H66.6667ZM63.3333 19.8H36.6667V9.9H63.3333V19.8ZM33.3333 3.3H66.6667C68.5075 3.3 70 4.77759 70 6.6V9.9H66.6667V8.25C66.6667 7.33879 65.9204 6.6 65 6.6H35C34.0796 6.6 33.3333 7.33879 33.3333 8.25V9.9H30V6.6C30 4.77759 31.4925 3.3 33.3333 3.3ZM30 13.2H33.3333V19.8H30V13.2ZM8.33333 89.1C7.41292 89.1 6.66667 88.3612 6.66667 87.45V49.2792L12.5 52.5793C12.7531 52.7243 13.0404 52.8008 13.3333 52.8H33.3333V54.45C33.3333 55.3612 34.0796 56.1 35 56.1V57.75C35.0081 63.384 38.2357 68.5282 43.3333 71.0322V72.9891L33.5897 75.6132C28.527 77.0013 25.0163 81.5558 25 86.7571V89.1H8.33333ZM40 77.3059L42.3332 76.6775L48.3333 81.6275V85.8H51.6667V81.6242L57.6668 76.6742L60 77.301V80.162L50 90.062L40 80.162V77.3059ZM53.9152 75.4762L50 78.7053L46.0848 75.4778C46.4494 75.1717 46.6618 74.7237 46.6667 74.25V72.2173C48.859 72.7273 51.1409 72.7273 53.3333 72.2173V74.25C53.339 74.7229 53.5506 75.1701 53.9152 75.4762ZM50 69.3C43.5596 69.2927 38.3407 64.126 38.3333 57.75V56.1H42.8117C46.792 56.1113 50.6104 54.5451 53.4163 51.7502L54.5833 50.5957C56.1678 53.169 58.7126 55.0204 61.6667 55.7487V57.75C61.6593 64.126 56.4404 69.2927 50 69.3ZM63.3333 52.7194C60.6234 52.344 58.2747 50.6674 57.0597 48.2391L56.4917 47.1128C56.2516 46.6391 55.7975 46.308 55.2694 46.2234C54.7412 46.138 54.2041 46.3096 53.8249 46.6834L51.0604 49.4178C48.877 51.5899 45.9074 52.8081 42.8117 52.8H36.6667V49.5C36.6667 42.2095 42.6359 36.3 50 36.3C57.3641 36.3 63.3333 42.2095 63.3333 49.5V52.7194ZM71.6667 95.7H66.6667V87.45H63.3333V95.7H36.6667V87.45H33.3333V95.7H28.3333V86.7571C28.3455 83.0414 30.8545 79.7873 34.4718 78.7956L36.6667 78.2098V80.85C36.6667 81.2875 36.8424 81.7072 37.1549 82.0166L48.8216 93.5666C49.4727 94.2103 50.5273 94.2103 51.1784 93.5666L62.8451 82.0166C63.1576 81.7072 63.3333 81.2875 63.3333 80.85V78.2098L65.5233 78.8004C69.1398 79.7914 71.6504 83.0422 71.6667 86.7571V95.7ZM93.3333 87.45C93.3333 88.3612 92.5871 89.1 91.6667 89.1H75V86.7571C74.9837 81.5541 71.4705 76.9981 66.4046 75.6116L56.6667 72.9891V71.0322C61.7643 68.5282 64.9919 63.384 65 57.75V56.1C65.9204 56.1 66.6667 55.3612 66.6667 54.45V52.8H86.6667C86.9588 52.8016 87.2469 52.7267 87.5 52.5825L93.3333 49.2825V87.45ZM96.6667 43.5929L86.2231 49.5H66.6667C66.6667 40.3871 59.2049 33 50 33C40.7951 33 33.3333 40.3871 33.3333 49.5H13.7769L3.33333 43.5929V24.75C3.33333 23.8388 4.07959 23.1 5 23.1H95C95.9204 23.1 96.6667 23.8388 96.6667 24.75V43.5929Z" fill="#6685A3"/>
</svg>
